<?xml version="1.0" encoding="UTF-8"?>
<svg width="16px" height="16px" viewBox="0 0 16 16" version="1.1" xmlns="http://www.w3.org/2000/svg" xmlns:xlink="http://www.w3.org/1999/xlink">
    <!-- Generator: Sketch 43.1 (39012) - http://www.bohemiancoding.com/sketch -->
    <title>多种专享特权</title>
    <desc>Created with Sketch.</desc>
    <defs></defs>
    <g id="个人中心(非牛人)" stroke="none" stroke-width="1" fill="none" fill-rule="evenodd">
        <g id="02-申请成为牛人" transform="translate(-117.000000, -434.000000)">
            <g id="Group-7" transform="translate(117.000000, 431.000000)">
                <g id="多种专享特权" transform="translate(0.000000, 3.000000)">
                    <path d="M7.9902439,0 C3.58439024,0 0,3.58439024 0,7.99219512 C0,12.3980488 3.58439024,15.9843902 7.9902439,15.9843902 C12.3960976,15.9843902 15.982439,12.4 15.982439,7.99219512 C15.982439,3.58634146 12.3960976,0 7.9902439,0" id="Fill-1" fill="#F5C506"></path>
                    <path d="M5.37756098,11.5960976 L5.34243902,11.6234146 L5.05170732,13.5921951 L5.61756098,13.8712195 L6.01756098,11.164878 L5.37756098,11.5960976 Z M3.96487805,12.6985366 L4.29268293,13.2156098 L5.05170732,13.5902439 L5.34243902,11.6214634 L3.96487805,12.6985366 L3.96487805,12.6985366 Z" id="Fill-2" fill="#F59F06"></path>
                    <polyline id="Fill-3" fill="#F49F06" points="6.01756098 11.164878 5.61560976 13.8712195 6.18146341 14.1502439 6.69073171 10.7121951 6.01756098 11.164878"></polyline>
                    <polyline id="Fill-4" fill="#F39F06" points="6.69073171 10.7121951 6.18146341 14.1502439 6.74731707 14.4292683 7.36390244 10.2595122 6.69073171 10.7121951"></polyline>
                    <polyline id="Fill-5" fill="#EFA006" points="7.36390244 10.2595122 6.74731707 14.4292683 7.31121951 14.7102439 8.03707317 9.80682927 7.36390244 10.2595122"></polyline>
                    <polyline id="Fill-6" fill="#EEA006" points="8.03707317 9.80682927 7.31121951 14.7102439 7.87707317 14.9892683 8.71219512 9.35414634 8.03707317 9.80682927"></polyline>
                    <polyline id="Fill-7" fill="#EDA106" points="8.71219512 9.35414634 7.87707317 14.9892683 8.44097561 15.2682927 9.38536585 8.8995122 8.71219512 9.35414634"></polyline>
                    <polyline id="Fill-8" fill="#ECA106" points="9.38536585 8.8995122 8.44097561 15.2682927 9.00682927 15.5473171 10.0585366 8.44682927 9.38536585 8.8995122"></polyline>
                    <polyline id="Fill-9" fill="#EBA206" points="10.0585366 8.44682927 9.00682927 15.5473171 9.57268293 15.8282927 10.7317073 7.99414634 10.0585366 8.44682927"></polyline>
                    <path d="M10.7317073,7.99414634 L9.57073171,15.8282927 L9.59219512,15.8380488 C9.79707317,15.7970732 9.99804878,15.7463415 10.1990244,15.6897561 L11.4068293,7.54146341 L10.7317073,7.99414634" id="Fill-10" fill="#EBA606"></path>
                    <path d="M11.4068293,7.54146341 L10.1990244,15.6878049 C10.4136585,15.6253659 10.6282927,15.555122 10.8370732,15.475122 L12.08,7.08878049 L11.4068293,7.54146341" id="Fill-11" fill="#EBA606"></path>
                    <path d="M12.08,7.08878049 L10.8370732,15.475122 C11.057561,15.3912195 11.2741463,15.297561 11.484878,15.1941463 L12.7531707,6.63609756 L12.08,7.08878049" id="Fill-12" fill="#EBA706"></path>
                    <path d="M12.7531707,6.63609756 L11.484878,15.1941463 C11.7112195,15.084878 11.9317073,14.9639024 12.1443902,14.8331707 L13.4263415,6.18341463 L12.7531707,6.63609756" id="Fill-13" fill="#EAA706"></path>
                    <path d="M13.4263415,6.18146341 L12.1463415,14.8331707 C12.3785366,14.6907317 12.604878,14.5365854 12.8214634,14.3726829 L14.1014634,5.73073171 L13.4263415,6.18146341" id="Fill-14" fill="#E9A806"></path>
                    <path d="M14.1229268,5.71317073 L14.1014634,5.72878049 L12.8195122,14.3707317 C13.0614634,14.1853659 13.2936585,13.9882927 13.5141463,13.777561 L14.6653659,6.00195122 L14.1229268,5.71317073" id="Fill-15" fill="#E8A906"></path>
                    <path d="M14.6673171,6.00195122 L13.5160976,13.777561 C13.7756098,13.5297561 14.0156098,13.2663415 14.24,12.9853659 L15.2292683,6.29853659 L14.6673171,6.00195122" id="Fill-16" fill="#E6A906"></path>
                    <path d="M15.2292683,6.29853659 L14.2380488,12.9853659 C14.5326829,12.6165854 14.7941463,12.222439 15.0185366,11.8087805 L15.7912195,6.59512195 L15.2292683,6.29853659" id="Fill-17" fill="#E2AA06"></path>
                    <path d="M15.7912195,6.59512195 L15.0185366,11.8087805 C15.6331707,10.6770732 15.982439,9.38146341 15.982439,8.00585366 C15.982439,7.54536585 15.9434146,7.08682927 15.8634146,6.63219512 L15.7912195,6.59512195" id="Fill-18" fill="#E1AA06"></path>
                    <path d="M7.9902439,12.1268293 L11.4243902,12.1268293 C11.7307317,12.1268293 11.9746341,12.3434146 12.0078049,12.6341463 C12.0409756,12.9268293 11.8497561,13.1941463 11.5531707,13.2604878 C11.5102439,13.2721951 11.4653659,13.2721951 11.4243902,13.2721951 L4.55219512,13.2721951 C4.29073171,13.2721951 4.0702439,13.1160976 3.99414634,12.88 C3.91609756,12.6439024 3.98829268,12.3765854 4.19707317,12.2419512 C4.30439024,12.1736585 4.44878049,12.124878 4.57560976,12.124878 C5.71512195,12.1209756 6.85268293,12.1268293 7.9902439,12.1268293 Z M1.86146341,5.70926829 L1.9004878,5.59804878 C2.00195122,5.29560976 2.26536585,5.09463415 2.58731707,5.07121951 C2.88,5.0497561 3.17463415,5.22146341 3.31121951,5.49073171 C3.45170732,5.76585366 3.41268293,6.0897561 3.20780488,6.33170732 C3.18439024,6.35902439 3.16097561,6.38439024 3.13365854,6.41560976 C3.70341463,6.76487805 4.26926829,7.10829268 4.83121951,7.45560976 C5.04390244,7.58829268 5.2604878,7.71902439 5.47317073,7.84780488 C5.59609756,7.92 5.6897561,7.89853659 5.75609756,7.7795122 C6.40585366,6.59512195 7.05560976,5.41073171 7.70341463,4.22634146 C7.4204878,4.08390244 7.23902439,3.86341463 7.22146341,3.5395122 C7.2097561,3.31121951 7.2897561,3.11609756 7.45170732,2.95804878 C7.77170732,2.64585366 8.29658537,2.67512195 8.57756098,3.0204878 C8.90146341,3.41658537 8.78439024,3.88097561 8.27121951,4.22829268 C8.43902439,4.53463415 8.60682927,4.84292683 8.77658537,5.14731707 C9.24682927,6.00390244 9.71512195,6.85853659 10.1853659,7.71512195 C10.2926829,7.91414634 10.3629268,7.93170732 10.5560976,7.81658537 C11.2839024,7.37365854 12.0097561,6.92682927 12.737561,6.48 C12.7707317,6.45853659 12.8039024,6.43707317 12.8429268,6.41365854 C12.6926829,6.26341463 12.5970732,6.09365854 12.5853659,5.88487805 C12.5639024,5.49268293 12.8331707,5.15121951 13.2117073,5.08487805 C13.6058537,5.01658537 13.9707317,5.24097561 14.0858537,5.62146341 C14.0936585,5.65073171 14.1073171,5.68195122 14.1190244,5.71121951 L14.1190244,5.97463415 C13.9960976,6.37073171 13.7404878,6.60097561 13.3053659,6.60292683 C13.2897561,6.64780488 13.2721951,6.69268293 13.2604878,6.73756098 C12.835122,8.19707317 12.4097561,9.65853659 11.9843902,11.1180488 C11.9297561,11.3092683 11.8614634,11.3580488 11.6702439,11.3580488 L4.32195122,11.3580488 C4.11512195,11.3580488 4.05268293,11.3112195 3.99609756,11.1180488 C3.64878049,9.9395122 3.30731707,8.75121951 2.96,7.56682927 C2.86634146,7.24682927 2.77268293,6.92682927 2.67707317,6.60487805 C2.35121951,6.60487805 2.10536585,6.47609756 1.95317073,6.19512195 C1.91609756,6.12682927 1.89268293,6.04878049 1.86341463,5.97658537 C1.86146341,5.88487805 1.86146341,5.79707317 1.86146341,5.70926829 L1.86146341,5.70926829 Z" id="Fill-19" fill="#FFFFFF"></path>
                </g>
            </g>
        </g>
    </g>
</svg>