<?xml version="1.0" encoding="utf-8"?>
<!-- Generator: Adobe Illustrator 19.0.0, SVG Export Plug-In . SVG Version: 6.00 Build 0)  -->
<svg version="1.1" id="图层_1" xmlns="http://www.w3.org/2000/svg" xmlns:xlink="http://www.w3.org/1999/xlink" x="0px" y="0px"
	 viewBox="-248 370.9 98 101" style="enable-background:new -248 370.9 98 101;" xml:space="preserve">
<style type="text/css">
	.st0{fill:#E5E5E5;}
	.st1{fill:#15B0FF;}
	.st2{fill:#FFFFFF;}
	.st3{fill:none;stroke:#15B0FF;stroke-width:2;}
	.st4{font-family:'FZCHSJW--GB1-0';}
	.st5{font-size:20px;}
	.st6{opacity:0.2;fill:#15B0FF;enable-background:new    ;}
</style>
<title>未达到申请资格</title>
<desc>Created with Sketch.</desc>
<ellipse id="Oval-2" class="st0" cx="-199" cy="466.9" rx="49" ry="5"/>
<path id="Combined-Shape" class="st1" d="M-194.4,373.9h6.4c2.2,0,4,1.8,4,4v1h19c1.1,0,2,0.9,2,2v84c0,1.1-0.9,2-2,2h-68
	c-1.1,0-2-0.9-2-2v-84c0-1.1,0.9-2,2-2l0,0h19v-1l0,0c0-2.2,1.8-4,4-4h6.4c0.8-1.8,2.5-3,4.6-3S-195.2,372.1-194.4,373.9z
	 M-199,377.9c1.1,0,2-0.9,2-2c0-1.1-0.9-2-2-2s-2,0.9-2,2C-201,377-200.1,377.9-199,377.9z"/>
<rect id="Rectangle-2" x="-231" y="382.9" class="st2" width="64" height="80"/>
<circle id="Oval" class="st3" cx="-199" cy="408.9" r="15"/>
<text transform="matrix(1 0 0 1 -204 415.89)" class="st1 st4 st5">！</text>
<path id="Rectangle-34" class="st6" d="M-222.5,434.9h47c0.8,0,1.5,0.7,1.5,1.5l0,0c0,0.8-0.7,1.5-1.5,1.5h-47
	c-0.8,0-1.5-0.7-1.5-1.5l0,0C-224,435.6-223.3,434.9-222.5,434.9z"/>
<path id="Rectangle-34_1_" class="st6" d="M-222.5,445.9h37c0.8,0,1.5,0.7,1.5,1.5l0,0c0,0.8-0.7,1.5-1.5,1.5h-37
	c-0.8,0-1.5-0.7-1.5-1.5l0,0C-224,446.6-223.3,445.9-222.5,445.9z"/>
</svg>
