<?xml version="1.0" encoding="UTF-8"?>
<svg width="7px" height="11px" viewBox="0 0 7 11" version="1.1" xmlns="http://www.w3.org/2000/svg" xmlns:xlink="http://www.w3.org/1999/xlink">
    <!-- Generator: Sketch 46.2 (44496) - http://www.bohemiancoding.com/sketch -->
    <title>?</title>
    <desc>Created with Sketch.</desc>
    <defs></defs>
    <g id="个人中心(非牛人)" stroke="none" stroke-width="1" fill="none" fill-rule="evenodd">
        <g id="02-申请成为牛人" transform="translate(-123.000000, -351.000000)" fill="#FC5155">
            <g id="条件" transform="translate(98.000000, 266.000000)">
                <g id="Group-6-Copy-2" transform="translate(0.000000, 76.000000)">
                    <path d="M28.665,9.08 C27.555,9.08 26.685,9.395 26.04,10.025 C25.38,10.655 25.065,11.525 25.065,12.635 L26.775,12.635 C26.775,11.99 26.895,11.495 27.15,11.15 C27.45,10.745 27.915,10.55 28.56,10.55 C29.07,10.55 29.475,10.685 29.76,10.97 C30.03,11.255 30.18,11.645 30.18,12.14 C30.18,12.515 30.045,12.875 29.775,13.205 L29.595,13.415 C28.62,14.285 28.035,14.915 27.84,15.32 C27.63,15.725 27.54,16.22 27.54,16.79 L27.54,17 L29.265,17 L29.265,16.79 C29.265,16.43 29.34,16.1 29.49,15.8 C29.625,15.53 29.82,15.275 30.09,15.065 C30.81,14.435 31.245,14.03 31.38,13.88 C31.74,13.4 31.935,12.785 31.935,12.035 C31.935,11.12 31.635,10.4 31.035,9.875 C30.435,9.335 29.64,9.08 28.665,9.08 Z M28.395,17.735 C28.065,17.735 27.795,17.84 27.585,18.05 C27.345,18.26 27.24,18.53 27.24,18.86 C27.24,19.19 27.345,19.46 27.585,19.67 C27.795,19.88 28.065,20 28.395,20 C28.725,20 28.995,19.895 29.235,19.685 C29.445,19.475 29.565,19.19 29.565,18.86 C29.565,18.53 29.445,18.26 29.235,18.05 C29.01,17.84 28.725,17.735 28.395,17.735 Z" id="?"></path>
                </g>
            </g>
        </g>
    </g>
</svg>